<svg width="180" height="180" viewBox="0 0 180 180" fill="none" xmlns="http://www.w3.org/2000/svg">
  <rect width="180" height="180" rx="48" fill="#F7F8FA"/>
  <rect x="18" y="18" width="144" height="144" rx="42" fill="#ECFEFF"/>
  <circle cx="90" cy="90" r="50" fill="#111318"/>
  <path d="M90 43C104.4 50 114.1 59.4 121 73.8C107.7 70.7 95.7 68.8 82.4 70.4C85.8 58.8 87 53.3 90 43Z" fill="#22D3EE"/>
  <path d="M137 90C130 104.4 120.6 114.1 106.2 121C109.3 107.7 111.2 95.7 109.6 82.4C121.2 85.8 126.7 87 137 90Z" fill="#5EEAD4"/>
  <path d="M90 137C75.6 130 65.9 120.6 59 106.2C72.3 109.3 84.3 111.2 97.6 109.6C94.2 121.2 93 126.7 90 137Z" fill="#67E8F9"/>
  <path d="M43 90C50 75.6 59.4 65.9 73.8 59C70.7 72.3 68.8 84.3 70.4 97.6C58.8 94.2 53.3 93 43 90Z" fill="#0891B2"/>
  <circle cx="90" cy="90" r="14" fill="#F8FAFC"/>
  <circle cx="90" cy="90" r="5" fill="#111318"/>
</svg>
